<svg xmlns="http://www.w3.org/2000/svg" width="204.46" height="124.35" viewBox="0 0 204.46 124.35">
	<style type="text/css">
		.st1{fill:#ff5a00;fill-rule:evenodd;}
		.st0{fill:#657380;fill-rule:evenodd;}
	</style>
	<path class="st0" d="M189.26,96.33C191.05,95.35 192.93,94.86 194.94,94.86C200.34,94.86 201.24,95.75 201.24,103.98C201.24,112.29 200.34,113.14 194.94,113.14C192.93,113.14 191.05,112.65 189.26,111.66ZM189.26,123.86L189.26,112.96C190.64,114.75 193.51,115.91 195.83,115.91C201.96,115.91 204.46,113.18 204.46,103.98C204.46,94.77 201.96,92.09 195.83,92.09C193.51,92.09 190.64,93.25 189.26,95.04L189.26,92.71L186.36,92.71L186.36,123.86Z"/>
	<path class="st0" d="M179.92,112.51L179.92,92.71L177.01,92.71L177.01,111.66C175.23,112.65 173.35,112.91 171.34,112.91C165.93,112.91 165.26,112.42 165.26,104.87L165.26,92.71L162.36,92.71L162.36,105.45C162.36,114.12 164.76,115.91 170.13,115.91C173.22,115.91 175.63,114.48 177.01,112.96L177.82,115.69L180.67,115.01Z"/>
	<path class="st0" d="M147.56,94.86C152.83,94.86 153.77,95.84 153.77,103.98C153.77,112.46 152.83,113.14 147.56,113.14C142.28,113.14 141.35,112.46 141.35,103.98C141.35,95.84 142.28,94.86 147.56,94.86M147.56,115.91C154.58,115.91 156.99,113.14 156.99,103.88C156.99,94.68 154.53,92.09 147.56,92.09C140.58,92.09 138.13,94.68 138.13,103.88C138.13,113.14 140.54,115.91 147.56,115.91"/>
	<path class="st0" d="M134.55,95.53C134.61,95.55 134.75,95.61 134.92,95.68L135.71,92.7C135.52,92.61 135.36,92.55 135.31,92.53C134.54,92.25 133.48,92.09 132.22,92.09C129.73,92.09 127.81,93.47 125.97,95.04L125.16,92.29L122.35,93.04L123.29,95.93L123.29,115.28L126.19,115.28L126.19,96.33C127.99,95.53 129.5,95.04 131.51,95.04C132.63,95.04 133.8,95.25 134.55,95.53"/>
	<path class="st0" d="M118.24,92.71L106.98,92.71C101.39,92.71 98.08,94.32 98.08,100.22C98.08,103.71 99.02,105.81 101.57,106.79C100.45,107.51 99.33,108.53 99.33,109.96C99.33,111.21 99.56,112.33 101.52,113.05C99.6,114.12 97.86,115.95 97.86,118.55C97.86,122.79 100.85,124.35 107.51,124.35C115.11,124.35 117.84,122.25 117.84,117.34C117.84,112.24 115.07,111.12 107.96,111.12C102.37,111.12 102.19,110.5 102.19,108.72C102.19,108.22 102.29,107.64 102.42,107.1C103.67,107.46 105.15,107.59 106.98,107.59C113.05,107.59 116.14,105.63 116.14,100.62C116.14,98.61 114.93,96.65 113.28,95.17L118.24,95.17ZM112.97,100.13C112.97,103.98 112.34,104.96 106.98,104.96C101.93,104.96 101.21,103.88 101.21,100C101.21,96.02 102.11,95.17 107.11,95.17L111.94,95.17C112.52,96.33 112.97,97.9 112.97,100.13M107.96,113.72C113.99,113.72 114.57,114.43 114.57,117.74C114.57,120.42 113.14,121.58 107.78,121.58C102.47,121.58 101.16,120.69 101.16,117.74C101.16,116.4 101.52,114.52 102.19,113.23C103.45,113.54 105.32,113.72 107.96,113.72"/>
	<path class="st1" d="M98.54,0L98.54,21.29C109.28,22.02 117.93,30.66 118.66,41.4L139.95,41.4L139.95,24.84L116.58,24.84C115.8,24.84 115.11,24.14 115.11,23.37L115.11,0Z"/>
	<path class="st0" d="M115.1,66.25L115.1,42.88C115.1,32.96 107,24.84 97.06,24.84L73.69,24.84L73.69,41.4L97.06,41.4C97.85,41.4 98.54,42.1 98.54,42.88L98.54,66.25Z"/>
	<path class="st0" d="M24.84,42.88C24.84,42.1 24.15,41.4 23.37,41.4L0,41.4L0,24.84L21.3,24.84C22.02,35.58 30.67,44.22 41.4,44.96L41.4,97.07C41.4,97.84 42.1,98.54 42.88,98.54L66.24,98.54L66.24,115.1L42.88,115.1C32.96,115.1 24.84,106.99 24.84,97.07Z"/>
	<path class="st1" d="M66.24,41.4L42.88,41.4C32.96,41.4 24.84,33.29 24.84,23.37L24.84,0L41.4,0L41.4,23.37C41.4,24.14 42.1,24.84 42.88,24.84L66.24,24.84Z"/>
</svg>