<?xml version="1.0" encoding="UTF-8"?> <!-- Generator: Adobe Illustrator 24.1.0, SVG Export Plug-In . SVG Version: 6.00 Build 0) --> <svg xmlns="http://www.w3.org/2000/svg" xmlns:xlink="http://www.w3.org/1999/xlink" x="0px" y="0px" viewBox="0 0 346.7 71.3" style="enable-background:new 0 0 346.7 71.3;" xml:space="preserve"> <style type="text/css"> .st0{fill:#FFFFFF;stroke:#FFFFFF;stroke-miterlimit:10;} .st1{fill:#FFFFFF;} .st2{fill:none;stroke:#FFFFFF;stroke-width:0.976;stroke-miterlimit:10;} .st3{fill:none;stroke:#FFFFFF;stroke-miterlimit:10;} .st4{opacity:0.44;fill:#20232A;} .st5{fill-rule:evenodd;clip-rule:evenodd;fill:#1D1D1B;} .st6{fill:#010101;} .st7{fill-rule:evenodd;clip-rule:evenodd;fill:#FFFFFF;} .st8{fill-rule:evenodd;clip-rule:evenodd;fill:#FFFFFF;stroke:#C2C2C2;stroke-miterlimit:10;} .st9{fill-rule:evenodd;clip-rule:evenodd;fill:none;stroke:#FFFFFF;stroke-width:2.8346;stroke-miterlimit:10;} .st10{fill-rule:evenodd;clip-rule:evenodd;fill:#657380;} .st11{fill-rule:evenodd;clip-rule:evenodd;fill:#F05A22;} .st12{fill-rule:evenodd;clip-rule:evenodd;fill:#FF5A00;} .st13{fill:#20232A;} .st14{clip-path:url(#SVGID_4_);} .st15{fill:#1E2437;} .st16{clip-path:url(#SVGID_8_);} .st17{fill:#1538A3;} .st18{fill:#050407;} .st19{fill:#0067B2;} .st20{clip-path:url(#SVGID_10_);} .st21{clip-path:url(#SVGID_12_);} .st22{clip-path:url(#SVGID_14_);} .st23{clip-path:url(#SVGID_16_);} .st24{clip-path:url(#SVGID_18_);} .st25{clip-path:url(#SVGID_20_);} .st26{clip-path:url(#SVGID_22_);} .st27{clip-path:url(#SVGID_24_);} .st28{clip-path:url(#SVGID_26_);} .st29{clip-path:url(#SVGID_28_);} .st30{clip-path:url(#SVGID_30_);} .st31{clip-path:url(#SVGID_32_);} .st32{clip-path:url(#SVGID_34_);} .st33{clip-path:url(#SVGID_36_);} .st34{clip-path:url(#SVGID_38_);} .st35{clip-path:url(#SVGID_40_);} .st36{clip-path:url(#SVGID_42_);} .st37{fill:#6F5840;} .st38{clip-path:url(#SVGID_44_);} .st39{clip-path:url(#SVGID_46_);} .st40{clip-path:url(#SVGID_48_);} .st41{clip-path:url(#SVGID_50_);} .st42{clip-path:url(#SVGID_52_);} .st43{clip-path:url(#SVGID_54_);} .st44{clip-path:url(#SVGID_56_);} .st45{clip-path:url(#SVGID_58_);} .st46{fill-rule:evenodd;clip-rule:evenodd;fill:#004F92;} .st47{fill:#004F92;} .st48{fill:none;stroke:#FFFFFF;stroke-width:0.2835;stroke-miterlimit:10;} .st49{fill:none;stroke:#FFFFFF;stroke-width:0.9921;stroke-miterlimit:10;} .st50{clip-path:url(#SVGID_62_);} .st51{clip-path:url(#SVGID_64_);} .st52{fill:#E30613;} .st53{fill:#20222B;} .st54{fill:none;stroke:#FFFFFF;stroke-width:1.2633;stroke-miterlimit:10;} .st55{fill:#20222B;stroke:#FFFFFF;stroke-width:1.2633;stroke-miterlimit:10;} .st56{clip-path:url(#SVGID_66_);} .st57{fill:#5F6066;} .st58{fill-rule:evenodd;clip-rule:evenodd;fill:#E30613;} .st59{fill:#1D1D1B;} .st60{fill:none;} .st61{clip-path:url(#SVGID_68_);} .st62{clip-path:url(#SVGID_70_);} .st63{clip-path:url(#SVGID_72_);} .st64{clip-path:url(#SVGID_74_);} .st65{fill-rule:evenodd;clip-rule:evenodd;fill:#D83027;} .st66{fill-rule:evenodd;clip-rule:evenodd;fill:#C7C7C7;} .st67{fill:#FF5A00;} .st68{clip-path:url(#SVGID_76_);} .st69{fill:#7D7769;} .st70{fill:#F1F1F1;} .st71{clip-path:url(#SVGID_78_);} .st72{fill:none;stroke:#1D1E1B;stroke-width:0.9921;stroke-miterlimit:10;} .st73{fill:#9D9D9C;} .st74{fill:none;stroke:#9D9D9C;stroke-width:0.8187;stroke-miterlimit:10;} .st75{fill:none;stroke:#9D9D9C;stroke-width:1.0296;stroke-miterlimit:10;} .st76{fill:none;stroke:#1D1D1B;stroke-width:1.4938;stroke-miterlimit:10;} .st77{fill:none;stroke:#FFFFFF;stroke-width:1.5637;stroke-miterlimit:10;} .st78{fill:none;stroke:#20222B;stroke-width:0.9921;stroke-miterlimit:10;} .st79{fill:none;stroke:#FFFFFF;stroke-width:1.1222;stroke-miterlimit:10;} .st80{fill:none;stroke:#FFFFFF;stroke-width:1.2838;stroke-miterlimit:10;} </style> <g id="Layer_1"> <g> <g> <path class="st46" d="M61.6,0H28.6c-1.3,0.1-7.7-0.1-12.2,7.1L0,35.6l8.2,14.2l21.3-36.9c3.3-5.5,8.7-5.7,10.2-5.6h26.1L61.6,0z M20.6,71.3h33.1c1.3-0.1,7.7,0.1,12.2-7.1l16.4-28.4L74,21.4L52.7,58.3c-3.3,5.5-8.7,5.7-10.3,5.6H16.4L20.6,71.3z M74,21.4 H61.8c-1.1,0-4.4,0.2-6.3,3.6L39.9,51.7c-0.7,1.5-3.1,5.2-8.4,5.3L12.4,57l-4.2-7.2h12.2c2,0.1,5-1,6.5-3.9l15.4-26.8 c0.8-1.5,3.2-4.8,8.2-4.8h19.3L74,21.4z"></path> </g> <g> <rect x="288" y="21.8" class="st47" width="4.7" height="28.5"></rect> <path class="st47" d="M266.4,47.1c-7.7,0-10-2-10-11.2c0-9.6,2.3-11.2,10-11.2c7.8,0,10.1,1.6,10.1,11.2 C276.5,45.1,274.2,47.1,266.4,47.1L266.4,47.1z M266.4,21.1c-10.2,0-15.1,3.1-15.1,14.8c0,11.7,4.9,15,15.1,15 c10.3,0,15.1-3.3,15.1-15C281.5,24.2,276.6,21.1,266.4,21.1L266.4,21.1z"></path> <polygon class="st47" points="216.7,27.9 215.7,31.6 229.3,31.6 215.7,48.1 215.7,50.2 235.5,50.2 236.5,46.5 222.4,46.5 235.9,30.1 235.9,27.9 "></polygon> <path class="st47" d="M201.2,30.8c4.1,0,5.5,1,5.8,5.7h-12.5C194.9,32.1,196.6,30.8,201.2,30.8L201.2,30.8z M210.9,46.6 c-2.3,0.3-7.1,0.6-8.9,0.6c-5.1,0-7.5-1.3-7.6-7.3h17.3c0.3-10.1-3.1-12.6-10.7-12.6c-7.5,0-11.6,2.8-11.6,11.7 c0,9.1,4.5,11.9,12.1,11.9c2.4,0,5.9-0.5,8.5-1.2L210.9,46.6z"></path> <path class="st47" d="M184.7,31.6l1-3.7h-8.5V22h-4.8v5.9h-4.4v3.7h4.4v11.1c0,6.6,2.6,8.1,8.3,8.1c1.4,0,3-0.2,4.4-0.5l1-3.6 c-1.6,0.2-3,0.3-4.7,0.3c-3.3,0-4.3-1.4-4.3-4.6V31.6H184.7z"></path> <path class="st47" d="M147.4,31.8c1.8-0.4,3.4-0.6,5.5-0.6c5.1,0,6.4,1.3,6.4,7.1v12h4.7V37.7c0-8.1-2.9-10.4-10.2-10.4 c-3.6,0-8.2,0.7-11.1,1.8v21.1h4.7V31.8z"></path> <path class="st47" d="M132.9,18.9c-2.2,0-2.8,0.8-2.8,2.8c0,2.1,0.7,2.9,2.8,2.9c2.1,0,2.8-0.8,2.8-2.9 C135.7,19.7,135,18.9,132.9,18.9L132.9,18.9z"></path> <rect x="130.5" y="27.9" class="st47" width="4.7" height="22.3"></rect> <path class="st47" d="M122.1,19.9c-2.8-0.6-6.2-1-8.6-1c-10.5,0-14.4,1.2-14.4,8.7c0,6.3,3.7,8.3,11.8,8.9 c6.8,0.5,8.4,1.9,8.4,5.2c0,4.8-3.4,5.1-9.3,5.1c-3.1,0-6.6-0.2-8.9-0.4l-1,3.4c2.7,0.6,6.5,1,10,1c9.3,0,14.6-0.9,14.6-9.3 c0-6.5-3.7-8.3-11.9-8.9c-6.6-0.5-8.2-2-8.2-5.1c0-4.2,2.4-4.6,9-4.6c3.2,0,4.7,0.2,7.6,0.4L122.1,19.9z"></path> <path class="st46" d="M334.8,21.8l12,28.5h-5.3l-3.2-7.9h-15.8l-3.3,7.9h-5l11.6-28.5h8.1L334.8,21.8z M336.7,38.8l-5.5-13.6 h-1.7l-5.7,13.6H336.7z"></path> <polygon class="st47" points="288.7,37.7 295.1,37.7 312.9,21.8 306.5,21.8 "></polygon> <polygon class="st47" points="293.5,36.2 297.9,34 313.4,50.3 307,50.3 "></polygon> </g> </g> </g> <g id="Layer_2"> </g> </svg> 