<svg xmlns="http://www.w3.org/2000/svg" width="315.35" height="87.15" viewBox="0 0 315.35 87.15">
	<style type="text/css">
		.st2{fill:#e30613;fill-rule:evenodd;}
		.st1{fill:#1d1d1b;fill-rule:evenodd;}
		.st0{fill:#1d1d1b;}
	</style>
	<path class="st0" d="M308.25,68.9C306.69,68.9 304.8,69.16 303.43,69.62C303.3,69.68 303.23,69.81 303.3,70.01L303.69,71.38C303.69,71.57 303.89,71.64 304.02,71.57C305.19,71.18 307.01,70.92 308.25,70.92C311.77,70.92 312.55,71.77 312.55,75.68L312.55,77.83C311.84,76.85 309.75,75.68 308.06,75.68C303.3,75.68 302,77.37 302,81.02C302,84.61 303.3,86.31 308.06,86.31C309.75,86.31 311.84,85.13 312.55,84.15L313.07,85.91C313.14,86.04 313.33,86.11 313.46,86.04L314.96,85.72C315.09,85.65 315.22,85.46 315.16,85.33L314.7,83.83L314.7,75.68C314.7,70.33 312.94,68.9 308.25,68.9M308.38,77.7C309.88,77.7 311.25,78.09 312.55,78.81L312.55,83.18C311.25,83.89 309.88,84.28 308.38,84.28C304.86,84.28 304.28,83.63 304.28,81.02C304.28,78.35 304.86,77.7 308.38,77.7M294.63,84.28C290.72,84.28 290.01,83.76 290.01,77.57C290.01,71.64 290.72,70.92 294.63,70.92C296,70.92 297.31,71.12 298.54,71.57C298.61,71.64 298.8,71.57 298.87,71.38L299.26,70.01C299.33,69.81 299.26,69.62 299.06,69.55C297.96,69.16 296,68.9 294.63,68.9C289.49,68.9 287.66,70.79 287.66,77.5C287.66,84.28 289.49,86.31 294.63,86.31C296,86.31 297.96,86.04 299.06,85.59C299.26,85.52 299.33,85.39 299.26,85.2L298.87,83.76C298.8,83.63 298.61,83.57 298.54,83.57C297.31,84.09 296,84.28 294.63,84.28M283.43,69.62C283.43,69.49 283.3,69.36 283.1,69.36L281.6,69.36C281.41,69.36 281.28,69.49 281.28,69.62L281.28,85.52C281.28,85.72 281.41,85.85 281.6,85.85L283.1,85.85C283.3,85.85 283.43,85.72 283.43,85.52ZM282.38,63.16C281.34,63.16 281.02,63.29 281.02,64.4C281.02,65.58 281.34,65.77 282.38,65.77C283.36,65.77 283.69,65.58 283.69,64.4C283.69,63.29 283.36,63.16 282.38,63.16M266.36,69.62C266.36,69.49 266.23,69.36 266.03,69.36L264.53,69.36C264.34,69.36 264.21,69.49 264.21,69.62L264.21,85.52C264.21,85.72 264.34,85.85 264.53,85.85L266.03,85.85C266.23,85.85 266.36,85.72 266.36,85.52L266.36,71.96C267.66,71.25 269.03,71.05 270.46,71.05C274.44,71.05 274.96,71.44 274.96,76.92L274.96,85.52C274.96,85.72 275.09,85.85 275.22,85.85L276.78,85.85C276.91,85.85 277.04,85.72 277.04,85.52L277.04,76.53C277.04,70.2 275.28,68.9 271.37,68.9C269.09,68.9 267.33,69.94 266.36,71.05ZM259.97,76.53C259.97,70.2 258.21,68.9 254.3,68.9C252.02,68.9 250.26,69.94 249.28,71.05L249.28,62.84C249.28,62.64 249.15,62.51 248.96,62.51L247.46,62.51C247.27,62.51 247.13,62.64 247.13,62.84L247.13,85.52C247.13,85.72 247.27,85.85 247.46,85.85L248.96,85.85C249.15,85.85 249.28,85.72 249.28,85.52L249.28,71.96C250.59,71.25 251.96,71.05 253.39,71.05C257.36,71.05 257.89,71.44 257.89,76.92L257.89,85.52C257.89,85.72 258.02,85.85 258.15,85.85L259.71,85.85C259.84,85.85 259.97,85.72 259.97,85.52ZM239.45,84.28C235.6,84.28 234.89,83.76 234.89,77.57C234.89,71.64 235.6,70.92 239.45,70.92C240.81,70.92 242.12,71.12 243.36,71.57C243.42,71.64 243.62,71.57 243.68,71.38L244.07,70.01C244.14,69.81 244.07,69.62 243.88,69.55C242.77,69.16 240.81,68.9 239.45,68.9C234.3,68.9 232.47,70.79 232.47,77.5C232.47,84.28 234.3,86.31 239.45,86.31C240.81,86.31 242.77,86.04 243.88,85.59C244.07,85.52 244.14,85.39 244.07,85.2L243.68,83.76C243.62,83.63 243.42,83.57 243.36,83.57C242.12,84.09 240.81,84.28 239.45,84.28M218.34,75.81C218.53,71.57 219.25,70.86 222.64,70.86C226.09,70.86 226.68,71.57 226.81,75.81ZM228.44,77.57C228.63,77.57 228.89,77.37 228.89,77.11C228.89,70.33 227.26,68.9 222.7,68.9C218.07,68.9 216.06,70.86 216.06,77.5C216.06,84.28 217.81,86.31 223.29,86.31C224.66,86.31 226.61,85.98 227.85,85.52C228.04,85.46 228.11,85.26 228.04,85.07L227.65,83.7C227.59,83.5 227.39,83.44 227.33,83.5C226.15,83.96 224.66,84.28 223.29,84.28C219.12,84.28 218.34,83.76 218.34,77.57ZM207.32,65.25C207.32,65.05 207.19,64.99 207,65.05L205.43,65.64C205.24,65.71 205.24,65.84 205.24,66.03L205.24,69.36L203.15,69.36C202.96,69.36 202.83,69.49 202.83,69.62L202.83,70.86C202.83,70.99 202.96,71.12 203.15,71.12L205.24,71.12L205.24,80.31C205.24,85.2 206.41,86.31 209.8,86.31C210.97,86.31 212.08,86.11 212.93,85.72C213.12,85.65 213.12,85.46 213.06,85.26L212.73,84.02C212.67,83.89 212.54,83.83 212.41,83.83C211.62,84.09 210.78,84.22 209.86,84.22C207.85,84.22 207.32,83.96 207.32,80.24L207.32,71.12L212.47,71.12C212.6,71.12 212.73,70.99 212.73,70.86L212.73,69.62C212.73,69.49 212.6,69.36 212.47,69.36L207.32,69.36ZM193.05,86.31C198.2,86.31 199.96,84.28 199.96,77.5C199.96,70.79 198.14,68.9 193.05,68.9C187.97,68.9 186.15,70.79 186.15,77.5C186.15,84.28 187.91,86.31 193.05,86.31M193.05,70.92C196.9,70.92 197.62,71.64 197.62,77.57C197.62,83.76 196.9,84.28 193.05,84.28C189.21,84.28 188.49,83.76 188.49,77.57C188.49,71.64 189.21,70.92 193.05,70.92M183.54,71.38C183.74,71.44 183.87,71.31 183.93,71.18L184.32,69.55C184.39,69.42 184.26,69.23 184.13,69.23C183.54,68.96 182.76,68.9 181.85,68.9C180.02,68.9 178.65,69.88 177.29,71.05L176.77,69.29C176.7,69.16 176.57,69.03 176.37,69.1L174.94,69.49C174.75,69.55 174.68,69.75 174.75,69.88L175.33,71.7L175.33,85.52C175.33,85.72 175.46,85.85 175.59,85.85L177.16,85.85C177.35,85.85 177.48,85.72 177.48,85.52L177.48,71.96C178.78,71.38 179.89,71.05 181.33,71.05C182.17,71.05 183.02,71.18 183.54,71.38M166.01,65.25C166.01,65.05 165.88,64.99 165.69,65.05L164.12,65.64C163.93,65.71 163.93,65.84 163.93,66.03L163.93,69.36L161.84,69.36C161.65,69.36 161.52,69.49 161.52,69.62L161.52,70.86C161.52,70.99 161.65,71.12 161.84,71.12L163.93,71.12L163.93,80.31C163.93,85.2 165.1,86.31 168.49,86.31C169.66,86.31 170.77,86.11 171.62,85.72C171.81,85.65 171.81,85.46 171.75,85.26L171.42,84.02C171.36,83.89 171.23,83.83 171.1,83.83C170.31,84.09 169.47,84.22 168.56,84.22C166.54,84.22 166.01,83.96 166.01,80.24L166.01,71.12L171.16,71.12C171.29,71.12 171.42,70.99 171.42,70.86L171.42,69.62C171.42,69.49 171.29,69.36 171.16,69.36L166.01,69.36ZM155.13,84.28C151.29,84.28 150.57,83.76 150.57,77.57C150.57,71.64 151.29,70.92 155.13,70.92C156.5,70.92 157.87,71.12 159.04,71.57C159.17,71.64 159.37,71.57 159.37,71.38L159.76,70.01C159.82,69.81 159.76,69.62 159.63,69.55C158.46,69.16 156.5,68.9 155.13,68.9C150.05,68.9 148.23,70.79 148.23,77.5C148.23,84.28 149.99,86.31 155.13,86.31C156.5,86.31 158.46,86.04 159.63,85.59C159.76,85.52 159.82,85.39 159.76,85.2L159.37,83.76C159.37,83.63 159.17,83.57 159.04,83.57C157.87,84.09 156.5,84.28 155.13,84.28M134.02,75.81C134.22,71.57 134.93,70.86 138.32,70.86C141.78,70.86 142.36,71.57 142.49,75.81ZM144.19,77.57C144.38,77.57 144.64,77.37 144.64,77.11C144.64,70.33 143.01,68.9 138.45,68.9C133.76,68.9 131.74,70.86 131.74,77.5C131.74,84.28 133.5,86.31 138.97,86.31C140.41,86.31 142.36,85.98 143.6,85.52C143.73,85.46 143.8,85.26 143.73,85.07L143.34,83.7C143.34,83.5 143.14,83.44 143.01,83.5C141.84,83.96 140.41,84.28 138.97,84.28C134.8,84.28 134.02,83.76 134.02,77.57ZM124.97,82.92C124.97,83.18 124.97,83.5 125.1,83.89L125.81,85.91C125.81,86.04 126.01,86.11 126.14,86.04L127.64,85.72C127.83,85.65 127.9,85.46 127.83,85.33L127.05,83.18L127.05,62.84C127.05,62.64 126.92,62.51 126.79,62.51L125.23,62.51C125.1,62.51 124.97,62.64 124.97,62.84ZM110.44,75.81C110.63,71.57 111.35,70.86 114.74,70.86C118.19,70.86 118.78,71.57 118.91,75.81ZM120.6,77.57C120.8,77.57 121.06,77.37 121.06,77.11C121.06,70.33 119.43,68.9 114.8,68.9C110.18,68.9 108.15,70.86 108.15,77.5C108.15,84.28 109.91,86.31 115.39,86.31C116.76,86.31 118.78,85.98 120.01,85.52C120.14,85.46 120.21,85.26 120.14,85.07L119.75,83.7C119.75,83.5 119.56,83.44 119.43,83.5C118.25,83.96 116.76,84.28 115.39,84.28C111.22,84.28 110.44,83.76 110.44,77.57Z"/>
	<path class="st1" d="M170.18,0L108.81,0L108.81,31.55C108.81,42.56 111.28,47.71 114.15,50.97L170.18,50.97L170.18,43.48L130.37,43.48L130.31,27.83L166.47,27.83L166.47,20.27L130.31,20.27L130.31,7.56L170.18,7.56Z"/>
	<path class="st1" d="M207.52,20.27L199.18,20.27L199.18,0L177.68,0L177.68,31.55C177.68,42.56 180.15,47.71 183.02,50.97L199.18,50.97L199.18,27.83L204.13,27.83C210.45,28.22 212.73,30.76 215.6,34.41L228.5,50.97L249.87,50.97L230.06,25.55L249.87,0L228.5,0L217.81,13.81C215.14,17.27 212.99,19.68 207.52,20.27"/>
	<path class="st1" d="M315.35,0L255.54,0L255.54,31.55C255.54,42.56 258.02,47.71 260.88,50.97L277.17,50.97L277.17,27.83L311.64,27.83L311.64,20.27L277.17,20.27L277.17,7.56L315.35,7.56Z"/>
	<path class="st2" d="M87.37,34.74L87.37,55.99C69.78,57.56 46.97,59.9 19.35,76.4C18.56,76.66 17.98,75.68 18.56,75.09C48.67,51.62 68.28,42.76 87.37,34.74M87.37,68.44L87.37,87.15C69.97,78.03 50.62,73.59 31.08,74.83C30.55,74.83 30.36,74.44 30.29,74.11C30.29,73.72 30.55,73.4 30.94,73.27C51.27,66.68 70.56,67.33 87.37,68.44M18.63,0L0,0C9.05,17.4 13.55,36.7 12.31,56.32C12.31,56.77 12.64,57.03 13.03,57.1C13.35,57.1 13.74,56.84 13.87,56.45C20.45,36.04 19.74,16.81 18.63,0M52.58,0L31.34,0C29.84,17.6 27.49,40.41 11.01,67.99C10.68,68.83 11.72,69.36 12.24,68.83C35.77,38.72 44.56,19.09 52.58,0M66.52,0L87.37,0L87.37,20.86C51.79,41.32 28.79,61.86 2.15,86.89C1.95,87.02 1.69,87.15 1.43,87.15C0.78,87.15 0.26,86.57 0.26,85.91C0.26,85.72 0.32,85.46 0.45,85.26C25.47,58.6 46.19,35.65 66.52,0"/>
</svg>