<?xml version="1.0" encoding="UTF-8"?> <!-- Generator: Adobe Illustrator 24.1.0, SVG Export Plug-In . SVG Version: 6.00 Build 0) --> <svg xmlns="http://www.w3.org/2000/svg" xmlns:xlink="http://www.w3.org/1999/xlink" x="0px" y="0px" viewBox="0 0 36 36" style="enable-background:new 0 0 36 36;" xml:space="preserve"> <style type="text/css"> .st0{display:none;} .st1{display:inline;} .st2{fill:#FFFFFF;stroke:#FFFFFF;stroke-miterlimit:10;} .st3{fill:#FFFFFF;} .st4{display:inline;fill:none;stroke:#FFFFFF;stroke-width:0.976;stroke-miterlimit:10;} .st5{display:inline;fill:none;stroke:#FFFFFF;stroke-miterlimit:10;} .st6{display:inline;opacity:0.44;fill:#20232A;} .st7{fill-rule:evenodd;clip-rule:evenodd;fill:#1D1D1B;} .st8{fill:#010101;} .st9{display:inline;fill-rule:evenodd;clip-rule:evenodd;fill:#FFFFFF;} .st10{display:inline;fill-rule:evenodd;clip-rule:evenodd;fill:#FFFFFF;stroke:#C2C2C2;stroke-miterlimit:10;} .st11{display:inline;fill-rule:evenodd;clip-rule:evenodd;fill:none;stroke:#FFFFFF;stroke-width:2.8346;stroke-miterlimit:10;} .st12{fill-rule:evenodd;clip-rule:evenodd;fill:#657380;} .st13{fill-rule:evenodd;clip-rule:evenodd;fill:#F05A22;} .st14{fill-rule:evenodd;clip-rule:evenodd;fill:#FF5A00;} .st15{display:inline;fill:#20232A;} .st16{clip-path:url(#SVGID_4_);} .st17{display:inline;fill:#1E2437;} .st18{clip-path:url(#SVGID_8_);} .st19{display:inline;fill:#1538A3;} .st20{display:inline;fill:#050407;} .st21{display:inline;fill:#0067B2;} .st22{clip-path:url(#SVGID_10_);} .st23{clip-path:url(#SVGID_12_);} .st24{display:inline;fill:#FFFFFF;} .st25{clip-path:url(#SVGID_14_);} .st26{clip-path:url(#SVGID_16_);} .st27{clip-path:url(#SVGID_18_);} .st28{clip-path:url(#SVGID_20_);} .st29{clip-path:url(#SVGID_22_);} .st30{clip-path:url(#SVGID_24_);} .st31{clip-path:url(#SVGID_26_);} .st32{clip-path:url(#SVGID_28_);} .st33{clip-path:url(#SVGID_30_);} .st34{clip-path:url(#SVGID_32_);} .st35{clip-path:url(#SVGID_34_);} .st36{clip-path:url(#SVGID_36_);} .st37{clip-path:url(#SVGID_38_);} .st38{clip-path:url(#SVGID_40_);} .st39{clip-path:url(#SVGID_42_);} .st40{display:inline;fill:#6F5840;} .st41{clip-path:url(#SVGID_44_);} .st42{clip-path:url(#SVGID_46_);} .st43{clip-path:url(#SVGID_48_);} .st44{clip-path:url(#SVGID_50_);} .st45{clip-path:url(#SVGID_52_);} .st46{clip-path:url(#SVGID_54_);} .st47{clip-path:url(#SVGID_56_);} .st48{clip-path:url(#SVGID_58_);} .st49{fill-rule:evenodd;clip-rule:evenodd;fill:#004F92;} .st50{fill:#004F92;} .st51{display:inline;fill:none;stroke:#FFFFFF;stroke-width:0.2835;stroke-miterlimit:10;} .st52{fill:none;stroke:#FFFFFF;stroke-width:0.9921;stroke-miterlimit:10;} .st53{clip-path:url(#SVGID_62_);} .st54{clip-path:url(#SVGID_64_);} .st55{fill-rule:evenodd;clip-rule:evenodd;fill:#FFFFFF;} .st56{display:inline;fill:#E30613;} .st57{display:inline;fill:#20222B;} .st58{fill:none;stroke:#FFFFFF;stroke-width:1.2633;stroke-miterlimit:10;} .st59{fill:#20222B;stroke:#FFFFFF;stroke-width:1.2633;stroke-miterlimit:10;} .st60{display:inline;fill:#004F92;} .st61{clip-path:url(#SVGID_66_);} .st62{fill:#5F6066;} .st63{fill-rule:evenodd;clip-rule:evenodd;fill:#E30613;} .st64{fill:#1D1D1B;} .st65{fill:none;} .st66{clip-path:url(#SVGID_68_);} .st67{clip-path:url(#SVGID_70_);} .st68{clip-path:url(#SVGID_72_);} .st69{clip-path:url(#SVGID_74_);} .st70{fill-rule:evenodd;clip-rule:evenodd;fill:#D83027;} .st71{fill-rule:evenodd;clip-rule:evenodd;fill:#C7C7C7;} .st72{display:inline;fill:#FF5A00;} .st73{clip-path:url(#SVGID_76_);} .st74{display:inline;fill:#7D7769;} .st75{display:inline;fill:#F1F1F1;} .st76{clip-path:url(#SVGID_78_);} .st77{display:inline;fill:none;stroke:#1D1E1B;stroke-width:0.9921;stroke-miterlimit:10;} .st78{display:inline;fill:#9D9D9C;} .st79{display:inline;fill:none;stroke:#9D9D9C;stroke-width:0.8187;stroke-miterlimit:10;} .st80{display:inline;fill:none;stroke:#9D9D9C;stroke-width:1.0296;stroke-miterlimit:10;} .st81{fill:none;stroke:#1D1D1B;stroke-width:1.4938;stroke-miterlimit:10;} .st82{fill:none;stroke:#FFFFFF;stroke-width:1.5637;stroke-miterlimit:10;} .st83{fill:none;stroke:#20222B;stroke-width:0.9921;stroke-miterlimit:10;} .st84{fill:none;stroke:#FFFFFF;stroke-width:1.1222;stroke-miterlimit:10;} .st85{display:inline;fill:none;stroke:#FFFFFF;stroke-width:1.1222;stroke-miterlimit:10;} .st86{fill:none;stroke:#FFFFFF;stroke-width:1.2838;stroke-miterlimit:10;} </style> <g id="Layer_1" class="st0"> <g class="st1"> <defs> <rect id="SVGID_1_" x="-126.8" y="-43" width="2316.9" height="2761.8"></rect> </defs> <clipPath id="SVGID_2_"> <use xlink:href="#SVGID_1_" style="overflow:visible;"></use> </clipPath> <g style="clip-path:url(#SVGID_2_);"> <image style="overflow:visible;" width="2412" height="1808" xlink:href="794F7FC5.jpg" transform="matrix(3.5265 0 0 3.5265 -2650.8213 -1803.2489)"> </image> </g> </g> <rect x="-126.8" y="-43" class="st6" width="2316.9" height="2548.3"></rect> <g class="st1"> <g> <path class="st70" d="M24,26.8v6.2c0,1.6-1.3,2.9-2.8,2.9c-3.1,0-6.1,0-9.2,0c0-3.1,0-6.1,0-9.2c0-1.6,1.3-2.8,2.9-2.8H18 c3.1,0,5.8-2.4,6-5.5v-3.7c0-1.6,1.3-2.8,2.8-2.8c3,0,6.1,0,9.1,0c0,3,0,6.1,0,9.1c0,1.6-1.3,2.8-2.8,2.8c-2.1,0-4.3,0.1-6.4,0 C25.2,23.9,24,25.5,24,26.8L24,26.8z"></path> <path class="st71" d="M14.9,0c3,0,6,0,9.1,0c0,3,0,6.1,0,9.1c0,1.6-1.3,2.8-2.8,2.8h-3.6c-3.2,0-5.7,3-5.7,6.1v3.1 c0,1.6-1.3,2.8-2.8,2.8c-3,0-6.1,0-9.1,0c0-3.1,0-6.1,0-9.1C0,13.2,1.3,12,2.8,12h6.1c1.6,0,3-1.1,3-2.7V2.8 C12,1.3,13.2,0,14.9,0L14.9,0z"></path> </g> </g> </g> <g id="Layer_2"> </g> <g id="Layer_3"> <g> <g> <path class="st70" d="M24,26.8v6.2c0,1.6-1.3,2.9-2.8,2.9c-3.1,0-6.1,0-9.2,0c0-3.1,0-6.1,0-9.2c0-1.6,1.3-2.8,2.9-2.8H18 c3.1,0,5.8-2.4,6-5.5v-3.7c0-1.6,1.3-2.8,2.8-2.8c3,0,6.1,0,9.1,0c0,3,0,6.1,0,9.1c0,1.6-1.3,2.8-2.8,2.8c-2.1,0-4.3,0.1-6.4,0 C25.2,23.9,24,25.5,24,26.8L24,26.8z"></path> <path class="st71" d="M14.9,0c3,0,6,0,9.1,0c0,3,0,6.1,0,9.1c0,1.6-1.3,2.8-2.8,2.8h-3.6c-3.2,0-5.7,3-5.7,6.1v3.1 c0,1.6-1.3,2.8-2.8,2.8c-3,0-6.1,0-9.1,0c0-3.1,0-6.1,0-9.1C0,13.2,1.3,12,2.8,12h6.1c1.6,0,3-1.1,3-2.7V2.8 C12,1.3,13.2,0,14.9,0L14.9,0z"></path> </g> </g> </g> </svg> 